<?xml version="1.0" standalone="no"?>
<!DOCTYPE svg PUBLIC "-//W3C//DTD SVG 20010904//EN"
 "http://www.w3.org/TR/2001/REC-SVG-20010904/DTD/svg10.dtd">
<svg version="1.0" xmlns="http://www.w3.org/2000/svg"
 width="887.000000pt" height="884.000000pt" viewBox="0 0 887.000000 884.000000"
 preserveAspectRatio="xMidYMid meet">

<g transform="translate(0.000000,884.000000) scale(0.100000,-0.100000)"
fill="#000000" stroke="none">
<path d="M0 4420 l0 -4420 4435 0 4435 0 0 4420 0 4420 -4435 0 -4435 0 0
-4420z m8460 3590 l0 -300 -1140 0 -1140 0 0 300 0 300 1140 0 1140 0 0 -300z
m-5701 193 c40 -30 63 -81 58 -132 -9 -81 -75 -136 -156 -128 -143 15 -178
203 -50 270 42 22 110 18 148 -10z m-1653 -598 c113 -86 64 -266 -78 -282 -58
-7 -108 15 -144 63 -24 31 -29 47 -29 94 0 46 5 63 27 92 56 74 152 88 224 33z
m7553 -703 c58 -43 64 -140 12 -193 -76 -75 -204 -30 -217 77 -14 109 116 182
205 116z m-3889 -1582 l0 -830 -790 0 -790 0 0 830 0 830 790 0 790 0 0 -830z
m2380 -1750 l0 -210 -215 0 -215 0 0 210 0 210 215 0 215 0 0 -210z m1569
-738 c58 -43 64 -140 12 -193 -76 -75 -204 -30 -217 77 -14 109 116 182 205
116z m-7673 -717 c113 -86 64 -266 -78 -282 -58 -7 -108 15 -144 63 -24 31
-29 47 -29 94 0 46 5 63 27 92 56 74 152 88 224 33z m964 -201 c47 -19 90 -82
90 -133 0 -78 -73 -151 -151 -151 -51 0 -114 43 -133 90 -21 53 -20 75 5 126
14 30 32 48 62 63 51 25 74 26 127 5z m3983 -718 c104 -43 127 -180 42 -255
-61 -53 -139 -53 -201 1 -128 112 2 320 159 254z"/>
</g>
</svg>
