<?xml version="1.0" standalone="no"?>
<!DOCTYPE svg PUBLIC "-//W3C//DTD SVG 20010904//EN"
 "http://www.w3.org/TR/2001/REC-SVG-20010904/DTD/svg10.dtd">
<svg version="1.0" xmlns="http://www.w3.org/2000/svg"
 width="200.000000pt" height="215.000000pt" viewBox="0 0 200.000000 215.000000"
 preserveAspectRatio="xMidYMid meet">

<g transform="translate(0.000000,215.000000) scale(0.100000,-0.100000)"
fill="#000000" stroke="none">
<path d="M239 2118 c-1 -18 -1 -68 0 -110 l1 -78 -30 0 c-20 0 -30 5 -30 15 0
8 -4 15 -10 15 -5 0 -10 -7 -10 -15 0 -10 -10 -15 -30 -15 -20 0 -30 5 -30 15
0 8 -4 15 -10 15 -5 0 -10 -7 -10 -15 0 -10 -10 -15 -30 -15 -16 0 -30 -4 -30
-10 0 -5 14 -10 30 -10 20 0 30 -5 30 -15 0 -8 5 -15 10 -15 6 0 10 7 10 15 0
22 57 20 63 -2 4 -17 5 -17 6 0 1 13 10 17 35 17 l35 0 -1 -66 c0 -36 3 -68 6
-71 13 -13 18 8 18 71 l-1 66 30 0 c16 0 29 -5 29 -12 0 -10 2 -10 8 -1 4 7
36 11 81 11 l73 0 -5 -39 c-6 -43 1 -53 23 -38 12 8 12 12 3 16 -7 2 -13 18
-13 34 0 27 3 29 35 29 27 0 35 -4 35 -17 1 -17 1 -17 11 0 6 10 22 17 39 17
26 0 30 -3 28 -27 -1 -16 -9 -33 -18 -40 -13 -11 -13 -12 1 -13 18 0 25 -55 8
-65 -5 -4 -5 -13 -1 -23 5 -9 8 -62 8 -116 l-1 -100 -180 -1 c-170 -1 -181 0
-197 19 -16 19 -18 19 -18 4 0 -14 -8 -18 -35 -18 -29 0 -35 4 -35 21 0 18 3
19 15 9 17 -14 36 -5 29 14 -11 27 13 24 50 -6 30 -25 40 -28 47 -17 10 17
-10 50 -39 64 -24 11 -21 43 4 58 20 12 17 44 -6 67 -27 27 -53 25 -85 -4 -25
-23 -27 -31 -25 -93 4 -117 4 -115 -32 -111 -28 2 -33 7 -33 28 0 19 6 26 30
31 l30 7 -32 1 c-32 1 -45 15 -21 23 25 9 -1 38 -35 38 -31 0 -33 2 -34 35
l-1 35 56 0 c55 1 92 16 92 38 0 6 -5 14 -10 17 -6 4 -9 1 -8 -6 4 -15 -110
-13 -129 3 -7 5 -17 7 -23 3 -13 -8 -13 -202 0 -210 6 -3 10 -19 10 -36 0 -26
3 -29 30 -29 24 0 30 -4 31 -22 l0 -23 11 23 c15 30 58 30 66 0 l5 -22 8 22
c6 16 17 22 39 22 28 0 30 -3 30 -35 0 -27 -4 -35 -17 -35 -17 -1 -17 -1 0
-14 9 -7 17 -23 17 -34 0 -12 -8 -26 -17 -31 -17 -10 -17 -10 0 -11 15 0 18
-7 15 -32 -3 -30 -6 -33 -38 -35 -65 -3 -62 -2 -48 -17 9 -9 17 -11 25 -4 7 5
22 8 35 6 18 -2 24 -10 26 -35 3 -26 0 -33 -15 -33 -17 -1 -17 -1 0 -15 26
-19 19 -58 -11 -60 -13 -1 -30 4 -37 11 -11 11 -14 11 -18 0 -6 -16 -67 -9
-67 8 0 8 -2 8 -8 0 -4 -7 -18 -14 -31 -15 -37 -6 -39 -29 -2 -29 25 0 30 -4
34 -28 l4 -27 2 28 c1 24 5 27 35 27 30 0 35 -4 39 -27 l4 -28 2 28 c1 24 5
27 36 27 33 0 35 -2 29 -26 -5 -20 -3 -25 7 -22 8 3 14 13 14 24 0 14 8 20 32
22 29 3 32 1 36 -30 l4 -33 1 33 c2 30 5 32 36 32 32 0 35 -3 39 -32 l4 -33 1
33 c2 30 4 32 38 32 33 0 36 -2 32 -25 -3 -14 -1 -28 3 -31 5 -3 9 9 9 25 0
29 2 31 36 31 35 0 36 -1 32 -30 -3 -16 -1 -30 4 -30 4 0 8 14 8 30 0 27 3 30
33 30 32 0 33 -2 29 -30 -3 -23 -1 -30 13 -30 14 0 16 7 13 30 -4 28 -2 30 28
30 29 0 33 -3 37 -32 l4 -33 1 33 c2 32 3 32 52 32 l50 0 -2 -41 -1 -41 -414
5 -413 6 0 -25 0 -24 118 -1 c64 -1 216 -2 337 -4 121 -2 255 -4 297 -4 l76
-1 -2 -327 c-2 -181 -4 -385 -5 -455 0 -78 -5 -128 -11 -128 -5 0 -10 10 -11
23 0 22 0 22 -11 1 -6 -14 -20 -21 -39 -22 -25 -1 -29 3 -30 26 l-1 27 -7 -25
c-5 -19 -13 -25 -36 -25 -28 0 -30 2 -26 35 1 19 8 38 13 41 7 4 7 9 0 13 -6
3 -10 38 -10 76 l0 70 28 0 c19 0 30 -6 33 -17 4 -17 5 -17 6 0 1 13 10 17 37
17 35 0 35 -1 34 -37 -3 -63 3 -71 9 -13 3 30 5 132 3 225 l-3 170 -74 -2 -75
-3 0 29 0 29 70 0 c46 0 70 -4 70 -11 0 -7 5 -4 11 6 6 10 8 21 5 25 -4 3 -40
5 -81 4 l-75 -2 0 29 c0 33 17 43 59 35 16 -4 32 -1 35 5 5 7 -9 11 -44 11
l-51 0 3 32 c2 20 8 32 16 31 17 -4 15 14 -3 21 -10 4 -13 14 -9 36 5 23 3 30
-10 30 -12 0 -16 -9 -16 -35 0 -32 -2 -35 -30 -35 -27 0 -30 3 -30 30 0 24 4
30 23 31 l22 0 -23 10 c-33 13 -42 4 -35 -36 6 -35 5 -35 -32 -35 l-38 0 6 40
c4 31 2 40 -10 40 -9 0 -13 -6 -10 -15 4 -8 2 -17 -4 -21 -7 -4 -6 -10 0 -18
14 -17 4 -26 -31 -26 -27 0 -29 3 -27 33 2 17 -1 34 -6 37 -6 3 -9 -11 -7 -32
2 -21 -1 -38 -6 -38 -6 0 -6 -10 1 -24 11 -24 12 -24 19 -5 9 25 46 22 62 -3
8 -13 8 -23 -2 -39 -10 -15 -10 -24 -2 -34 20 -24 2 -55 -31 -55 -25 0 -29 4
-29 29 0 17 5 33 11 37 16 10 -9 23 -32 17 -18 -5 -18 -7 -3 -17 9 -7 14 -22
12 -37 -2 -19 -10 -25 -35 -27 -26 -3 -33 0 -33 15 -1 17 -1 17 -11 1 -6 -11
-22 -18 -39 -18 -27 0 -30 3 -30 30 0 17 7 33 18 39 16 10 16 10 0 11 -21 0
-25 49 -6 68 9 9 9 12 -1 12 -8 0 -11 12 -9 38 l3 37 -118 3 c-68 1 -116 -1
-113 -6 3 -5 33 -9 66 -9 33 0 63 -2 66 -5 3 -3 21 -2 40 2 34 8 34 7 34 -26
0 -20 -5 -34 -12 -34 -9 0 -9 -3 0 -12 16 -16 15 -65 -1 -71 -9 -4 -9 -6 1 -6
7 -1 12 -15 12 -36 0 -32 -2 -35 -30 -35 -22 0 -30 5 -30 18 -1 16 -1 16 -11
0 -6 -11 -22 -18 -39 -18 -27 0 -30 3 -30 30 0 17 7 33 17 39 17 10 17 10 1
11 -24 0 -24 55 -1 69 17 10 17 10 1 11 -13 0 -18 9 -19 28 -1 20 -2 22 -6 7
-3 -11 -9 -25 -15 -32 -6 -7 -5 -14 2 -18 13 -8 13 -52 0 -60 -8 -5 -7 -11 0
-20 21 -25 8 -60 -22 -63 -16 -2 -28 -7 -28 -12 0 -5 12 -10 27 -12 22 -2 28
-8 28 -28 0 -20 -6 -26 -30 -30 -20 -4 -26 -8 -18 -13 7 -5 17 -6 21 -3 4 2
13 2 19 -2 14 -9 5 -63 -11 -61 -24 3 -37 -1 -31 -11 3 -5 18 -10 32 -10 18 0
24 -4 20 -15 -4 -8 -2 -17 3 -20 6 -4 10 3 10 14 0 16 6 21 28 21 36 0 40 -4
34 -36 -4 -24 -8 -26 -42 -21 -49 6 -65 -4 -41 -25 17 -15 20 -15 25 -1 5 11
15 14 41 9 l35 -7 0 41 c0 43 3 45 68 41 17 -2 32 2 32 8 0 6 -4 11 -10 11 -5
0 -10 14 -10 30 0 36 21 48 55 32 15 -7 26 -8 30 -2 10 16 33 11 55 -12 16
-17 20 -18 20 -6 0 9 7 19 16 22 21 8 20 8 38 -10 14 -13 18 -14 30 -1 14 13
31 14 124 8 7 -1 12 -14 12 -31 0 -22 -5 -30 -17 -30 -17 -1 -17 -2 -1 -13 12
-10 16 -28 15 -79 -2 -71 -11 -83 -52 -68 -29 11 -34 4 -29 -41 4 -29 1 -40
-8 -38 -38 5 -58 -2 -58 -20 0 -11 -5 -23 -11 -26 -6 -4 -8 -13 -5 -21 3 -7 1
-16 -4 -19 -6 -4 -10 -1 -10 5 0 6 -5 8 -10 5 -6 -4 -8 -10 -5 -14 8 -14 42
-19 56 -10 12 8 12 11 0 18 -11 7 -12 13 -4 23 6 7 11 18 10 23 -1 6 28 11 66
13 67 2 68 2 61 -20 -7 -22 -9 -171 -2 -197 4 -18 -52 -22 -60 -3 -2 8 -8 9
-11 4 -3 -5 -18 -12 -32 -15 -21 -5 -28 -2 -36 16 l-10 22 -7 -22 c-5 -17 -15
-23 -36 -23 -23 0 -28 4 -23 16 4 11 2 15 -6 13 -7 -3 -12 -9 -12 -14 1 -19
-54 -24 -220 -19 -93 2 -169 2 -169 0 0 -11 51 -58 57 -53 3 4 1 12 -5 19 -8
11 116 14 646 16 510 2 657 5 657 15 0 12 -20 16 -87 18 -42 0 -68 20 -68 51
0 17 5 19 38 16 20 -1 38 1 40 6 1 5 -9 10 -22 11 -14 0 -34 9 -45 19 -21 19
-21 19 -21 -3 0 -18 -5 -22 -26 -19 -23 2 -33 12 -51 47 -1 1 -7 0 -13 -4 -8
-5 -8 -10 0 -20 8 -10 8 -15 0 -20 -14 -9 -60 22 -60 40 0 17 2 17 113 20 81
3 103 9 71 22 -10 5 -20 18 -21 30 -2 20 2 23 31 23 24 0 36 -5 39 -17 4 -17
5 -17 6 0 1 24 71 25 71 0 0 -9 3 -14 6 -11 8 8 11 467 3 480 -4 6 -9 4 -12
-5 -6 -16 -55 -29 -62 -17 -3 4 6 20 20 36 24 28 24 54 0 34 -9 -8 -14 -6 -19
6 -11 28 -6 53 12 63 16 9 16 10 -1 16 -14 6 -16 15 -13 47 6 50 6 49 42 42
28 -5 29 -8 26 -42 -3 -20 -9 -43 -14 -49 -7 -9 -7 -13 1 -13 6 0 11 -8 11
-17 1 -17 1 -17 11 0 6 10 8 29 5 42 -3 13 -1 45 6 70 15 57 8 63 -68 60 -30
-2 -57 1 -59 6 -3 4 -12 6 -20 2 -22 -8 -18 15 5 29 11 7 20 18 20 25 0 15
-16 17 -25 3 -3 -5 -15 -10 -27 -10 -18 0 -19 -2 -7 -16 11 -14 10 -18 -6 -30
-11 -8 -26 -12 -35 -8 -18 7 -235 5 -256 -3 -16 -6 -18 4 -14 130 1 48 3 149
4 225 1 102 4 137 14 136 6 -1 23 -2 37 -2 21 -2 25 -7 25 -32 0 -30 -21 -42
-35 -20 -3 6 -10 10 -16 10 -19 0 -8 -24 24 -51 25 -21 29 -30 20 -39 -9 -9
-9 -17 0 -31 10 -16 12 -16 22 -2 9 12 16 13 32 5 26 -14 37 -51 17 -59 -9 -3
-11 -9 -5 -17 15 -19 10 -64 -8 -69 -24 -6 -41 3 -41 21 0 13 -4 11 -16 -6
-11 -16 -22 -21 -35 -17 -11 4 -19 2 -19 -4 0 -6 13 -11 28 -11 25 0 29 -4 29
-30 0 -27 -3 -30 -34 -30 -42 0 -43 -18 -1 -22 24 -2 32 -8 35 -27 5 -37 13
-38 13 -3 0 21 5 32 14 32 30 0 46 -13 46 -36 0 -26 7 -29 30 -14 12 7 12 12
2 22 -20 20 -14 26 23 26 31 0 35 -3 36 -26 2 -25 2 -25 6 -4 3 15 10 22 19
18 8 -3 14 -1 14 4 0 14 104 12 118 -2 9 -9 12 -9 12 0 0 7 13 12 30 12 17 0
30 -4 30 -10 0 -15 17 -12 23 4 7 18 -3 56 -14 56 -5 0 -9 -7 -9 -15 0 -21
-50 -19 -66 3 -13 16 -13 16 -14 -1 0 -14 -7 -18 -27 -15 -33 4 -43 36 -18 55
17 11 17 13 2 19 -11 4 -17 17 -17 35 0 28 2 29 44 29 25 0 48 5 51 10 3 6 2
10 -3 10 -5 0 -7 11 -4 25 3 18 0 25 -12 25 -10 0 -16 -9 -16 -24 0 -14 -5
-28 -10 -31 -15 -9 -50 4 -50 19 0 19 37 49 63 51 33 2 22 19 -15 22 -51 5
-70 53 -20 53 20 0 32 -7 40 -22 l11 -23 0 23 c1 13 7 22 16 22 21 0 19 20 -2
21 -10 1 -50 1 -90 1 -40 -1 -75 3 -78 8 -7 11 -45 -9 -45 -23 0 -4 4 -6 9 -2
18 10 24 -18 7 -31 -13 -9 -14 -13 -4 -17 11 -5 11 -7 0 -15 -11 -7 -11 -10 2
-15 17 -7 22 -52 8 -61 -5 -3 -21 7 -37 21 -25 24 -26 27 -11 39 12 8 13 13 5
16 -18 6 -21 58 -3 58 8 0 14 5 14 10 0 6 -7 10 -15 10 -8 0 -15 7 -15 17 0
15 -1 15 -18 0 -10 -10 -28 -17 -40 -17 -18 0 -21 4 -17 23 9 33 -17 62 -56
62 -30 0 -32 2 -34 40 -1 22 -4 54 -7 70 -3 17 -3 24 -1 18 2 -7 8 -13 13 -13
4 0 13 -12 20 -27 19 -46 34 -73 42 -73 3 0 13 -6 20 -13 31 -32 238 -79 238
-55 0 5 8 8 18 8 10 0 23 5 29 11 15 15 80 14 98 -1 13 -11 15 -6 14 31 0 37
-2 40 -9 22 -6 -13 -18 -23 -30 -23 -27 0 -25 7 10 37 l30 25 0 144 c0 130 -2
144 -17 144 -10 0 -25 5 -33 11 -11 8 -7 9 18 5 32 -5 32 -5 32 33 0 30 -4 40
-20 44 -11 3 -20 12 -20 21 0 19 11 21 29 4 11 -11 13 -10 9 2 -3 8 -16 15
-29 15 -13 0 -51 11 -84 24 -49 19 -72 22 -123 17 -78 -7 -142 -34 -180 -77
-26 -29 -32 -31 -46 -20 -13 11 -16 33 -16 107 0 87 -1 94 -20 94 -18 0 -20
-7 -21 -77 -1 -43 0 -92 1 -109 l1 -32 -95 0 -96 -1 1 77 c2 117 0 142 -11
142 -5 0 -10 -13 -10 -29 0 -16 -6 -32 -12 -35 -10 -5 -10 -7 -1 -12 17 -7 17
-61 1 -68 -10 -5 -10 -7 0 -12 6 -3 12 -19 12 -35 0 -25 -4 -29 -29 -29 -23 0
-30 5 -35 27 -4 14 -3 29 2 32 4 3 2 17 -5 31 -11 22 -13 23 -14 5 -1 -11 -1
-37 0 -57 3 -36 1 -38 -28 -38 -18 0 -34 7 -40 18 -10 15 -10 16 -11 0 0 -15
-14 -17 -110 -17 l-110 1 1 76 c2 117 0 142 -11 142 -5 0 -11 -15 -11 -32z
m1033 -127 c26 -12 53 -31 59 -42 16 -31 3 -35 -23 -7 -13 14 -34 31 -48 38
-28 15 -99 30 -98 21 2 -20 -4 -31 -17 -31 -8 0 -15 7 -15 15 0 8 -9 15 -19
15 -27 0 -104 -34 -120 -54 -7 -9 -20 -16 -27 -16 -35 0 44 53 126 84 30 11
136 -2 182 -23z m-368 -59 c3 -5 -1 -28 -8 -52 -14 -48 -25 -35 -18 23 4 35
15 47 26 29z m-102 -35 c6 -9 8 -9 8 1 0 6 9 12 20 12 19 0 20 -5 15 -127 -3
-71 -6 -158 -6 -195 0 -69 -12 -87 -29 -45 -6 15 -9 17 -9 6 -1 -13 -13 -18
-46 -21 l-45 -3 0 33 c0 26 4 33 15 29 8 -4 17 -2 20 3 4 6 -2 10 -13 10 -15
0 -21 9 -26 46 -10 79 -9 84 23 84 17 0 33 5 36 10 4 6 16 10 27 8 12 -2 23 2
25 8 4 11 -6 13 -107 17 -52 2 -55 3 -51 27 1 14 8 28 13 31 7 4 6 9 -1 13 -6
4 -11 20 -11 36 l0 29 67 0 c41 0 71 -5 75 -12z m386 -27 c14 0 15 -2 2 -10
-19 -12 -41 6 -32 28 6 16 7 16 10 0 2 -10 11 -18 20 -18z m152 -57 c0 -20 -3
-24 -11 -16 -7 7 -9 19 -6 27 10 24 17 19 17 -11z m-426 -54 c-4 -24 -3 -44 3
-48 14 -9 25 -71 13 -71 -6 0 -10 6 -10 14 0 8 -7 17 -16 20 -10 4 -14 12 -10
22 3 9 3 21 -1 27 -4 7 -8 31 -8 54 0 36 2 40 17 32 15 -8 17 -17 12 -50z
m240 -5 c13 -5 14 -9 5 -20 -9 -11 -8 -14 7 -14 18 -1 18 -1 0 -15 -21 -16
-38 -11 -30 9 3 7 -2 16 -10 19 -9 4 -16 11 -16 17 0 11 20 13 44 4z m-478
-119 c1 -81 -2 -115 -10 -112 -11 4 -22 188 -12 214 14 36 21 2 22 -102z
m-426 75 c12 -7 12 -12 2 -22 -6 -6 -12 -22 -12 -35 0 -27 -1 -27 -35 -11 -25
11 -34 28 -15 28 6 0 10 8 10 18 0 32 21 41 50 22z m1096 -17 c-10 -10 -19 5
-10 18 6 11 8 11 12 0 2 -7 1 -15 -2 -18z m-1 -54 c-1 -16 -8 -36 -15 -42 -10
-10 -12 -9 -7 5 3 9 -1 22 -9 29 -12 10 -12 13 3 25 26 20 31 17 28 -17z
m-1281 -25 c18 -7 23 -79 6 -89 -12 -7 -30 36 -30 71 0 26 1 27 24 18z m886 2
c0 -3 -4 -8 -10 -11 -5 -3 -10 -1 -10 4 0 6 5 11 10 11 6 0 10 -2 10 -4z m32
-30 c6 4 17 -1 25 -11 7 -11 13 -15 13 -11 0 4 6 4 13 -1 6 -4 39 -8 72 -8 72
0 85 -18 18 -25 -43 -4 -46 -6 -28 -17 28 -17 13 -16 -21 2 -16 8 -37 15 -46
15 -21 0 -81 54 -71 64 4 4 9 2 11 -3 2 -6 9 -8 14 -5z m337 -13 c0 -5 -14
-19 -30 -32 -23 -18 -33 -21 -42 -12 -8 8 -5 11 12 11 14 0 25 7 28 20 5 18
34 30 32 13z m-95 -62 c3 -5 -6 -11 -19 -14 -27 -5 -44 8 -23 16 21 8 36 8 42
-2z m-907 -13 c6 -5 14 -5 17 0 9 15 66 1 67 -17 1 -14 2 -13 6 1 5 21 50 35
65 20 5 -5 8 -20 6 -33 -2 -20 -9 -24 -38 -25 -62 -2 -62 -2 -48 -18 9 -9 17
-11 25 -4 7 5 22 8 35 6 26 -3 37 -41 18 -64 -14 -16 -9 -17 48 -14 28 1 32
-1 32 -24 0 -21 5 -26 24 -26 24 0 86 -18 98 -29 4 -3 -44 -6 -107 -6 -119 0
-153 -11 -127 -37 19 -19 126 -15 147 5 9 10 26 17 37 17 30 0 6 -26 -47 -49
-23 -10 -46 -24 -50 -31 -14 -22 6 -23 49 -2 24 12 48 22 54 22 6 0 15 6 19
13 4 6 17 17 28 24 11 6 19 16 17 23 -1 7 3 10 10 8 18 -6 23 -49 6 -59 -11
-8 -11 -10 0 -18 8 -4 12 -19 10 -32 -2 -19 -9 -24 -33 -24 -26 0 -30 3 -27
25 2 13 11 30 20 38 15 11 14 12 -8 6 -29 -8 -40 -21 -40 -51 0 -17 -5 -21
-23 -19 -13 1 -28 6 -35 10 -7 4 -12 2 -12 -4 0 -7 -13 -10 -32 -8 -30 3 -33
6 -33 38 -1 34 -2 35 -47 40 -58 7 -73 3 -58 -15 7 -8 10 -24 8 -36 -4 -27
-56 -37 -65 -12 -5 13 -7 13 -14 1 -4 -7 -20 -13 -36 -12 -24 1 -27 5 -25 25
2 13 9 30 14 37 7 8 7 12 -1 12 -6 0 -11 16 -11 35 0 29 4 35 23 36 l22 2 -22
4 c-20 4 -22 10 -22 76 0 44 5 75 12 79 9 6 9 8 0 8 -8 0 -13 14 -13 34 0 30
3 35 23 34 12 -1 27 -5 34 -10z m241 -25 c3 -31 1 -33 -27 -33 -35 0 -45 12
-37 46 5 20 12 25 34 22 22 -2 28 -9 30 -35z m76 2 c0 -25 -4 -30 -23 -30 -27
0 -47 25 -39 47 3 8 18 14 34 13 24 0 28 -4 28 -30z m82 20 c6 -14 8 -14 18
-1 7 10 21 13 39 9 22 -4 27 -11 27 -34 0 -21 -5 -29 -17 -29 -15 0 -14 -2 3
-14 24 -18 27 -15 28 35 1 26 6 44 14 47 11 3 13 -14 8 -89 -3 -52 -5 -140 -6
-197 l0 -103 -47 3 c-42 3 -48 6 -51 26 -2 14 4 29 15 37 17 13 17 14 1 15
-24 0 -25 55 -2 68 12 7 0 13 -49 27 -37 10 -80 26 -97 37 -27 16 -31 23 -28
56 3 33 6 37 31 37 15 0 27 -3 27 -7 0 -5 0 -20 0 -34 0 -21 -4 -24 -20 -19
-11 4 -20 2 -20 -4 0 -6 8 -11 18 -11 10 0 23 -5 29 -11 9 -9 16 -8 28 5 9 9
12 16 5 16 -7 0 -10 13 -8 32 3 37 34 51 53 25 10 -14 12 -14 22 1 7 13 7 21
-3 30 -8 7 -14 8 -14 2 0 -5 -13 -10 -30 -10 -28 0 -30 3 -30 35 0 31 3 35 25
35 14 0 28 -7 31 -15z m444 5 c0 -5 -7 -10 -15 -10 -8 0 -15 5 -15 10 0 6 7
10 15 10 8 0 15 -4 15 -10z m-605 -105 c0 -27 -3 -30 -30 -30 -21 0 -31 5 -33
18 -6 33 6 49 35 45 24 -3 28 -8 28 -33z m468 24 c2 -2 7 -16 11 -31 4 -20 3
-28 -7 -28 -19 0 -60 46 -53 59 7 10 41 10 49 0z m177 1 c0 -5 -5 -10 -11 -10
-5 0 -7 5 -4 10 3 6 8 10 11 10 2 0 4 -4 4 -10z m-25 -24 c16 -15 23 -30 19
-40 -3 -9 -2 -16 4 -16 16 0 -9 -58 -27 -63 -28 -7 -41 4 -41 33 0 21 6 31 22
36 l23 7 -23 8 c-15 6 -22 17 -22 34 0 31 12 32 45 1z m-105 -111 c0 -9 11
-20 25 -25 45 -17 24 -76 -23 -64 -18 5 -21 12 -19 55 1 27 5 49 10 49 4 0 7
-7 7 -15z m130 -49 c0 -13 -7 -29 -15 -36 -14 -11 -13 -14 1 -24 27 -20 13
-51 -24 -54 -29 -3 -32 -1 -32 23 0 14 7 28 16 32 15 5 15 7 0 15 -16 9 -22
49 -9 61 3 4 19 7 35 7 23 0 28 -4 28 -24z m-734 -56 c11 0 14 -8 12 -27 -2
-24 -8 -28 -33 -28 -21 0 -31 5 -33 18 -6 28 6 50 24 43 9 -3 22 -6 30 -6z
m564 -14 c0 -8 3 -21 6 -30 8 -21 -29 -22 -50 0 -26 25 -20 44 14 44 19 0 30
-5 30 -14z m84 6 c3 -5 2 -18 -1 -30 -4 -16 -13 -22 -33 -22 -25 0 -28 3 -25
28 2 15 4 28 4 30 2 6 50 1 55 -6z m-249 -182 c17 -7 15 -9 -12 -9 -18 -1 -33
4 -33 9 0 12 17 12 45 0z m399 -43 c-10 -31 -54 -83 -54 -63 0 14 -2 14 -20
-1 -17 -15 -18 -19 -5 -26 11 -6 13 -13 5 -26 -5 -10 -7 -21 -4 -24 3 -3 -4
-8 -16 -12 -23 -7 -53 11 -44 27 3 5 0 9 -7 7 -28 -3 -39 1 -39 17 0 12 6 15
23 11 28 -8 60 9 35 18 -22 9 -11 44 18 57 15 7 28 8 36 1 9 -7 21 -5 38 3 22
12 12 14 -87 14 l-113 0 0 -34 c0 -35 -12 -46 -42 -38 -12 3 -18 14 -18 34 0
24 3 28 19 23 11 -3 22 -1 26 5 4 6 -15 10 -57 9 -46 -1 -55 -3 -33 -8 25 -5
29 -11 27 -31 -2 -14 -9 -31 -14 -37 -7 -9 -7 -13 2 -13 9 0 11 -12 7 -38 -2
-21 -1 -46 4 -54 17 -30 0 -48 -45 -48 -52 0 -56 4 -47 38 6 22 12 26 35 24
19 -3 26 0 22 7 -4 6 -18 11 -31 11 -23 0 -24 3 -24 66 0 107 -8 103 217 104
l193 0 -7 -23z m-151 -13 c4 -4 -2 -16 -13 -28 -11 -11 -26 -29 -33 -39 -12
-17 -13 -15 -15 18 -2 20 0 40 3 45 7 11 48 13 58 4z m157 -44 c0 -11 -4 -20
-10 -20 -5 0 -10 9 -10 20 0 11 5 20 10 20 6 0 10 -9 10 -20z m-715 -30 c4 -6
13 -5 24 2 28 17 51 3 51 -32 0 -21 -5 -30 -17 -31 -17 -1 -17 -2 0 -6 12 -3
17 -15 17 -39 0 -31 -3 -34 -30 -34 -26 0 -30 4 -30 28 0 15 5 33 12 40 9 9 9
12 0 12 -7 0 -12 10 -13 23 l0 22 -9 -22 c-7 -17 -18 -23 -40 -23 -26 0 -30 3
-30 28 0 16 3 32 7 35 10 10 51 8 58 -3z m477 -6 c12 -12 -9 -59 -25 -56 -23
4 -21 -11 3 -26 11 -7 20 -21 20 -32 0 -15 -7 -20 -29 -20 l-29 0 0 70 c0 70
0 70 27 70 15 0 30 -3 33 -6z m236 -54 c0 -33 -6 -68 -13 -77 -11 -15 -15 -14
-38 11 -14 15 -31 25 -36 21 -6 -3 -11 1 -11 10 0 11 6 15 19 10 10 -3 29 -2
41 3 l24 9 -26 6 c-21 6 -25 11 -20 29 6 26 20 38 44 38 14 0 17 -10 16 -60z
m-178 5 c0 -8 -5 -15 -11 -15 -5 0 -7 -5 -4 -10 4 -6 15 -8 25 -5 11 3 33 -5
56 -20 52 -35 52 -35 11 -35 -30 0 -37 4 -37 20 0 11 -5 20 -10 20 -6 0 -10
-8 -8 -17 2 -14 -5 -19 -29 -21 -30 -3 -33 -1 -33 25 0 43 11 73 26 73 8 0 14
-7 14 -15z m-542 -28 c6 -7 9 -23 5 -35 -4 -16 -13 -22 -34 -22 -25 0 -29 4
-29 28 0 16 3 32 7 35 11 11 40 8 51 -6z m-387 -89 c0 -10 2 -10 6 0 2 6 18
12 34 12 25 0 29 -4 29 -29 l0 -29 -70 0 -70 0 0 29 c0 26 3 29 35 29 21 0 35
-5 36 -12z m160 -10 l2 -23 4 23 c4 19 10 23 36 20 26 -2 32 -7 32 -28 0 -24
-2 -25 -72 -27 l-73 -2 0 29 c0 28 3 30 35 30 29 0 35 -4 36 -22z m152 0 c8
-30 1 -38 -34 -38 -26 0 -29 3 -29 30 0 26 3 30 29 30 21 0 30 -6 34 -22z m86
5 c10 -17 10 -17 11 0 0 12 8 17 30 17 27 0 30 -3 30 -29 l0 -30 -70 0 -70 0
0 29 c0 27 3 30 30 30 17 0 33 -7 39 -17z m391 0 c1 -17 1 -17 14 0 7 9 25 17
40 17 22 0 26 -4 26 -29 0 -34 -28 -46 -59 -25 -13 10 -21 10 -23 3 -5 -14
-77 -14 -91 0 -7 7 -3 13 14 20 24 10 24 10 2 10 -47 2 -21 21 27 21 41 0 50
-3 50 -17z m160 6 c0 -8 4 -8 13 -1 14 12 117 14 117 3 0 -4 -6 -19 -12 -33
-11 -24 -17 -26 -58 -22 -25 3 -61 4 -81 4 -33 -1 -36 2 -37 30 -1 27 2 30 29
30 16 0 29 -5 29 -11z m235 -24 c0 -29 -1 -30 -48 -30 -53 -1 -61 3 -46 25 8
13 10 13 18 0 6 -8 14 -11 18 -6 4 4 0 14 -10 21 -21 15 -8 23 38 21 26 -1 30
-5 30 -31z m-1180 -46 c6 0 22 3 38 7 26 6 27 4 27 -29 l0 -35 -70 0 c-70 0
-70 0 -70 27 0 36 9 44 40 36 14 -3 30 -6 35 -6z m625 -30 c0 -28 -15 -37 -45
-29 -5 2 -29 2 -52 1 -41 -2 -43 -1 -43 28 l0 29 70 0 70 0 0 -29z m160 19 c0
-9 3 -9 12 0 7 7 25 12 40 12 24 0 28 -4 28 -29 0 -32 -20 -43 -55 -31 -11 4
-28 4 -38 1 -10 -4 -34 -5 -52 -3 -30 4 -34 7 -32 32 2 26 5 28 50 29 30 0 47
-4 47 -11z m160 -17 c0 -34 -12 -45 -40 -36 -14 4 -20 15 -20 36 0 26 3 29 30
29 27 0 30 -3 30 -29z m85 20 c3 -5 1 -12 -5 -16 -6 -4 -8 -10 -5 -15 3 -5 -3
-14 -14 -19 -15 -8 -23 -7 -35 5 -17 16 -21 36 -9 47 10 10 61 8 68 -2z m69
-16 c8 -33 1 -45 -28 -45 -32 0 -35 7 -23 41 14 36 43 38 51 4z m84 -4 c2 -13
0 -27 -5 -32 -15 -15 -51 2 -56 27 -5 30 1 36 33 32 18 -2 26 -10 28 -27z
m-638 -63 c0 -9 3 -9 12 0 7 7 25 12 40 12 24 0 28 -4 28 -30 0 -17 -7 -33
-17 -39 -17 -10 -17 -10 0 -11 23 0 24 -58 1 -67 -15 -5 -15 -7 0 -15 9 -5 16
-20 16 -33 0 -22 -5 -25 -35 -25 -30 0 -35 3 -35 24 0 14 5 28 11 32 8 4 8 9
0 17 -16 16 -13 57 4 64 14 5 14 8 -1 24 -23 25 -33 9 -27 -41 4 -28 1 -39
-11 -43 -27 -11 -46 3 -46 34 0 19 5 29 15 29 8 0 15 5 15 10 0 6 -6 9 -12 8
-8 -2 -14 10 -16 30 -3 30 -1 32 27 32 18 0 31 -5 31 -12z m240 -3 c0 -19 16
-19 24 0 3 8 17 15 31 15 18 0 25 -5 25 -20 0 -11 -5 -20 -11 -20 -8 0 -8 -5
1 -15 10 -12 9 -15 -6 -16 -18 -1 -18 -2 -1 -6 14 -4 17 -13 15 -36 -3 -29 -6
-32 -38 -33 -78 -3 -76 -2 -55 -18 14 -10 26 -11 44 -5 34 13 51 4 51 -26 0
-22 -4 -25 -35 -25 -26 0 -35 4 -36 18 -1 16 -2 16 -6 -1 -4 -15 -13 -17 -51
-15 -43 3 -47 5 -47 28 0 20 6 26 30 30 25 5 27 7 12 13 -11 4 -23 5 -28 1
-10 -6 -10 -6 -10 76 0 33 0 62 0 63 1 2 21 5 46 5 34 2 45 -1 45 -13z m194
-3 c-3 -37 -5 -42 -14 -42 -5 0 -10 8 -11 18 0 13 -3 11 -10 -6 -14 -37 -53
-26 -57 16 l-3 32 48 -3 c30 -2 48 -8 47 -15z m119 -15 c2 -17 4 -33 3 -34 0
-1 -13 1 -28 4 -15 3 -28 13 -31 25 -3 11 -10 17 -17 13 -6 -4 -8 -15 -5 -26
4 -12 2 -19 -8 -19 -22 0 -26 10 -16 39 8 23 15 27 53 29 42 1 44 0 49 -31z
m82 -7 c0 -19 -3 -34 -7 -32 -5 1 -19 2 -33 2 -21 0 -25 5 -25 28 0 36 8 44
40 40 21 -3 25 -8 25 -38z m-235 -50 c0 -5 -5 -12 -10 -15 -6 -4 -9 -14 -8
-23 2 -11 -5 -18 -19 -20 -20 -3 -23 1 -23 30 0 30 3 33 30 35 17 1 30 -2 30
-7z m80 -19 c0 -36 -6 -40 -47 -34 -21 3 -30 10 -27 19 2 8 6 21 9 29 2 9 16
15 35 15 27 0 30 -3 30 -29z m55 2 c29 -33 31 -43 8 -43 -15 0 -16 -2 -3 -10
8 -5 16 -21 17 -35 2 -22 -2 -25 -33 -25 -29 0 -34 3 -34 25 0 13 8 29 18 34
9 6 11 11 5 11 -12 0 -20 70 -8 70 2 0 16 -12 30 -27z m25 17 c0 -5 -4 -10
-10 -10 -5 0 -10 5 -10 10 0 6 5 10 10 10 6 0 10 -4 10 -10z m60 1 c0 -6 -4
-13 -10 -16 -18 -11 -11 -27 9 -20 16 5 18 1 16 -25 -1 -17 -5 -33 -8 -36 -3
-3 -3 -12 0 -20 4 -10 -3 -14 -24 -14 -26 0 -30 3 -30 30 0 24 3 28 14 18 10
-8 17 -8 24 -1 8 8 4 16 -15 28 -25 16 -34 44 -19 58 10 10 43 8 43 -2z m-704
-103 c2 -26 0 -28 -32 -28 -31 0 -34 2 -34 31 0 28 2 30 31 27 26 -2 32 -8 35
-30z m84 2 c0 -27 -3 -30 -30 -30 -27 0 -30 3 -30 30 0 27 3 30 30 30 27 0 30
-3 30 -30z m455 20 c6 -1 13 -2 18 -1 4 0 7 -10 7 -24 0 -22 -4 -25 -35 -25
-26 0 -35 4 -36 18 -1 16 -2 16 -6 0 -3 -12 -14 -18 -33 -18 -21 0 -29 5 -32
24 -4 21 -1 25 21 28 29 3 81 2 96 -2z m-219 -103 c1 -15 -3 -30 -7 -33 -5 -3
-3 -14 3 -24 7 -11 15 -15 18 -10 3 5 20 13 38 16 31 6 32 6 29 -25 -2 -17 -6
-34 -10 -37 -3 -3 -2 -17 4 -31 5 -13 9 -33 9 -44 0 -17 -6 -20 -32 -17 -22 2
-35 9 -40 23 -6 19 -6 19 -7 -1 -1 -19 -7 -21 -50 -21 l-49 0 0 117 0 118 47
-2 c43 -1 46 -3 47 -29z m79 23 c8 -13 -5 -60 -17 -60 -5 0 -6 9 -3 20 4 11 2
20 -4 20 -6 0 -11 -7 -11 -15 0 -8 -7 -15 -15 -15 -15 0 -21 40 -8 53 10 10
51 8 58 -3z m85 -8 c0 -52 -60 -71 -66 -20 -2 22 2 27 24 31 15 2 30 5 35 6 4
0 7 -7 7 -17z m80 -22 c0 -25 -4 -30 -25 -30 -23 0 -45 24 -45 49 0 6 16 11
35 11 32 0 35 -2 35 -30z m-90 -134 c6 -8 10 -25 8 -37 -2 -18 -9 -23 -33 -23
-27 0 -30 3 -33 37 -3 33 -1 37 21 37 14 0 30 -7 37 -14z m88 -23 c0 -26 -5
-34 -23 -39 -33 -8 -43 1 -42 39 1 30 3 33 33 33 30 0 32 -3 32 -33z"/>
<path d="M787 1846 c-16 -13 -16 -14 3 -19 22 -6 38 10 24 23 -5 5 -17 3 -27
-4z"/>
<path d="M710 1840 c0 -5 9 -10 21 -10 11 0 17 5 14 10 -3 6 -13 10 -21 10 -8
0 -14 -4 -14 -10z"/>
<path d="M720 1692 c0 -19 5 -22 41 -22 l41 0 -3 -40 c-2 -22 1 -39 6 -37 5 1
9 23 10 50 l2 47 -35 -6 c-28 -5 -38 -3 -49 11 -12 18 -13 18 -13 -3z"/>
<path d="M320 1455 c0 -8 -6 -15 -12 -15 -7 0 -5 -5 5 -11 9 -5 23 -6 30 -2
10 6 9 12 -5 26 -15 14 -18 14 -18 2z"/>
<path d="M397 1370 c-6 -22 3 -32 20 -22 8 5 8 12 -2 25 -12 16 -13 16 -18 -3z"/>
<path d="M317 1366 c-7 -19 4 -27 21 -17 10 6 10 10 -1 20 -12 9 -16 8 -20 -3z"/>
<path d="M482 1300 c0 -14 2 -19 5 -12 2 6 2 18 0 25 -3 6 -5 1 -5 -13z"/>
<path d="M398 1289 c-3 -7 -2 -23 3 -34 4 -11 8 -14 8 -7 1 7 11 17 24 22 22
9 22 9 0 9 -12 1 -23 6 -25 13 -3 8 -6 7 -10 -3z"/>
<path d="M320 1269 c0 -5 5 -7 10 -4 6 3 10 8 10 11 0 2 -4 4 -10 4 -5 0 -10
-5 -10 -11z"/>
<path d="M308 1201 c-17 -6 -17 -7 1 -18 15 -10 22 -9 30 1 14 17 -5 27 -31
17z"/>
<path d="M798 1372 c-3 -9 -1 -26 3 -37 6 -15 8 -11 8 18 1 40 -4 48 -11 19z"/>
<path d="M717 1363 c-2 -5 -1 -21 3 -38 l6 -30 5 33 c5 30 -4 53 -14 35z"/>
<path d="M791 1281 c-10 -6 -10 -10 -1 -16 13 -8 24 -1 19 14 -3 6 -10 7 -18
2z"/>
<path d="M791 1196 c-9 -10 -8 -15 4 -20 10 -4 15 1 15 14 0 24 -4 25 -19 6z"/>
<path d="M880 866 c0 -9 7 -12 20 -9 11 3 17 9 14 14 -8 14 -34 10 -34 -5z"/>
<path d="M881 824 c0 -11 3 -14 6 -6 3 7 2 16 -1 19 -3 4 -6 -2 -5 -13z"/>
<path d="M1190 670 c0 -5 5 -10 10 -10 6 0 10 5 10 10 0 6 -4 10 -10 10 -5 0
-10 -4 -10 -10z"/>
<path d="M874 468 c-6 -9 1 -11 44 -8 18 1 32 -3 32 -10 0 -7 5 -6 14 2 8 7
12 16 9 21 -5 9 -93 5 -99 -5z"/>
<path d="M870 360 c0 -5 5 -10 11 -10 5 0 7 5 4 10 -3 6 -8 10 -11 10 -2 0 -4
-4 -4 -10z"/>
<path d="M876 231 c-4 -5 -2 -12 3 -15 5 -4 12 -2 15 3 4 5 2 12 -3 15 -5 4
-12 2 -15 -3z"/>
<path d="M871 123 c1 -22 3 -30 6 -18 3 11 9 25 14 31 5 6 6 14 2 17 -15 16
-23 5 -22 -30z"/>
<path d="M945 150 c-8 -13 9 -20 24 -11 10 6 9 10 -3 14 -8 3 -18 2 -21 -3z"/>
<path d="M945 2141 c-3 -5 -2 -12 3 -15 5 -3 9 -30 10 -60 1 -41 -2 -56 -15
-60 -9 -4 -13 -9 -9 -13 10 -11 46 29 46 51 0 16 7 22 25 24 14 1 25 -3 25 -8
0 -13 27 -13 32 1 8 25 -5 89 -19 89 -11 0 -12 -8 -7 -37 7 -35 6 -37 -9 -24
-13 10 -20 11 -30 2 -18 -14 -30 -2 -16 16 9 10 8 17 -1 28 -14 17 -26 19 -35
6z"/>
<path d="M1080 2140 c-5 -31 3 -54 20 -62 8 -4 44 -7 80 -7 42 -1 74 -7 87
-16 21 -15 22 -14 29 21 4 22 2 40 -5 47 -8 8 -11 5 -11 -11 0 -15 -6 -22 -19
-22 -34 0 -51 11 -51 34 0 18 -7 21 -45 24 -41 2 -45 0 -45 -21 0 -38 -14 -41
-26 -5 -7 18 -13 26 -14 18z m104 -30 c9 0 16 -4 16 -10 0 -5 -16 -10 -35 -10
-27 0 -35 4 -35 18 0 27 13 35 26 18 6 -9 19 -16 28 -16z"/>
<path d="M1334 2135 c21 -16 32 -13 21 4 -3 6 -14 11 -23 11 -15 -1 -15 -2 2
-15z"/>
<path d="M1225 2120 c3 -5 8 -10 11 -10 2 0 4 5 4 10 0 6 -5 10 -11 10 -5 0
-7 -4 -4 -10z"/>
<path d="M477 2100 c-3 -11 -3 -29 0 -40 l6 -21 14 21 c12 17 12 23 0 40 l-14
21 -6 -21z"/>
<path d="M85 2089 c-10 -15 3 -25 16 -12 7 7 7 13 1 17 -6 3 -14 1 -17 -5z"/>
<path d="M160 2086 c0 -9 5 -16 10 -16 6 0 10 4 10 9 0 6 -4 13 -10 16 -5 3
-10 -1 -10 -9z"/>
<path d="M320 2079 c0 -5 5 -7 10 -4 6 3 10 8 10 11 0 2 -4 4 -10 4 -5 0 -10
-5 -10 -11z"/>
<path d="M400 2080 c0 -5 5 -10 10 -10 6 0 10 5 10 10 0 6 -4 10 -10 10 -5 0
-10 -4 -10 -10z"/>
<path d="M560 2080 c0 -5 5 -10 10 -10 6 0 10 5 10 10 0 6 -4 10 -10 10 -5 0
-10 -4 -10 -10z"/>
<path d="M710 2080 c0 -5 9 -10 21 -10 11 0 17 5 14 10 -3 6 -13 10 -21 10 -8
0 -14 -4 -14 -10z"/>
<path d="M785 2080 c-4 -6 5 -10 19 -10 14 0 26 5 26 10 0 6 -9 10 -19 10 -11
0 -23 -4 -26 -10z"/>
<path d="M910 2080 c0 -5 5 -10 10 -10 6 0 10 5 10 10 0 6 -4 10 -10 10 -5 0
-10 -4 -10 -10z"/>
<path d="M477 2010 c-6 -22 3 -32 20 -22 8 5 8 12 -2 25 -12 16 -13 16 -18 -3z"/>
<path d="M77 2013 c-12 -11 -8 -23 8 -23 8 0 15 7 15 15 0 16 -12 20 -23 8z"/>
<path d="M156 2013 c-3 -3 -3 -10 0 -14 7 -12 34 -11 34 0 0 11 -26 22 -34 14z"/>
<path d="M310 2000 c0 -5 7 -10 15 -10 8 0 15 5 15 10 0 6 -7 10 -15 10 -8 0
-15 -4 -15 -10z"/>
<path d="M390 2000 c0 -5 9 -10 19 -10 11 0 23 5 26 10 4 6 -5 10 -19 10 -14
0 -26 -4 -26 -10z"/>
<path d="M715 2000 c-3 -5 1 -10 10 -10 9 0 13 5 10 10 -3 6 -8 10 -10 10 -2
0 -7 -4 -10 -10z"/>
<path d="M795 2000 c-3 -5 3 -10 15 -10 12 0 18 5 15 10 -3 6 -10 10 -15 10
-5 0 -12 -4 -15 -10z"/>
<path d="M72 1853 c-18 -7 -4 -23 19 -23 12 0 19 5 17 12 -5 14 -18 18 -36 11z"/>
<path d="M152 1853 c-18 -7 -4 -23 19 -23 12 0 19 5 17 12 -5 14 -18 18 -36
11z"/>
<path d="M555 1850 c-9 -15 4 -30 20 -23 8 3 15 9 15 13 0 12 -29 20 -35 10z"/>
<path d="M20 1839 c0 -5 5 -7 10 -4 6 3 10 8 10 11 0 2 -4 4 -10 4 -5 0 -10
-5 -10 -11z"/>
<path d="M310 1842 c0 -14 11 -21 26 -15 21 8 17 23 -6 23 -11 0 -20 -4 -20
-8z"/>
<path d="M380 1840 c0 -5 5 -10 10 -10 6 0 10 -11 10 -25 0 -14 4 -25 9 -25 4
0 6 11 3 25 -2 15 0 25 7 25 6 0 11 5 11 10 0 6 -11 10 -25 10 -14 0 -25 -4
-25 -10z"/>
<path d="M80 1800 c0 -5 5 -10 10 -10 6 0 10 5 10 10 0 6 -4 10 -10 10 -5 0
-10 -4 -10 -10z"/>
<path d="M480 1787 c0 -10 -8 -27 -19 -38 -16 -17 -19 -18 -31 -4 -16 20 -80
20 -80 0 0 -7 -6 -18 -13 -22 -12 -8 -47 -57 -47 -68 0 -3 6 -5 14 -5 9 0 12
-7 9 -20 -3 -13 5 -33 22 -56 40 -52 70 -45 112 26 18 30 33 50 34 45 0 -6 1
-30 2 -55 2 -33 6 -45 17 -45 17 0 20 66 5 101 -8 21 -16 64 -10 64 7 0 75
-151 71 -158 -2 -4 9 -8 26 -9 l30 -2 -6 47 c-4 26 -7 75 -9 110 -2 49 -6 63
-19 68 -10 3 -18 13 -18 22 0 12 -4 9 -13 -8 -11 -20 -11 -26 0 -28 7 -2 13
-18 13 -37 0 -18 3 -42 6 -52 3 -10 -15 5 -40 32 -26 28 -44 57 -42 66 2 9 0
23 -5 30 -7 11 -9 10 -9 -4z m-69 -76 c44 -41 10 -138 -40 -112 -11 6 -25 20
-31 31 -13 24 -3 70 16 70 8 0 14 7 14 15 0 20 17 19 41 -4z m64 -21 c-5 -8
-11 -8 -21 1 -12 10 -12 14 -2 20 16 10 33 -5 23 -21z m109 -66 c3 -8 2 -12
-4 -9 -6 3 -10 10 -10 16 0 14 7 11 14 -7z"/>
<path d="M375 1680 c-19 -8 -19 -9 2 -9 14 -1 23 -9 26 -23 3 -17 5 -14 6 10
1 34 -2 36 -34 22z"/>
<path d="M280 1760 c0 -5 5 -10 11 -10 5 0 7 5 4 10 -3 6 -8 10 -11 10 -2 0
-4 -4 -4 -10z"/>
<path d="M312 1759 c2 -6 8 -10 13 -10 5 0 11 4 13 10 2 6 -4 11 -13 11 -9 0
-15 -5 -13 -11z"/>
<path d="M77 1696 c-4 -9 -3 -16 1 -17 4 0 19 -3 35 -5 15 -3 27 0 27 6 0 5
-8 10 -18 10 -10 0 -23 5 -29 11 -7 7 -12 6 -16 -5z"/>
<path d="M1346 1444 c-20 -14 -20 -14 0 -28 16 -13 19 -13 22 0 2 8 2 20 0 28
-3 13 -6 13 -22 0z"/>
<path d="M20 1439 c0 -10 69 -16 83 -7 14 9 7 10 -45 12 -21 1 -38 -2 -38 -5z"/>
<path d="M140 1440 c-13 -8 -12 -10 3 -10 9 0 17 -5 17 -10 0 -6 8 -5 20 2 14
9 16 14 7 20 -16 10 -29 10 -47 -2z"/>
<path d="M45 1360 l-30 -8 33 -1 c23 -1 32 -6 32 -18 0 -15 2 -14 14 2 24 33
11 40 -49 25z"/>
<path d="M151 1361 c-11 -7 -11 -9 0 -13 8 -3 22 -3 32 0 15 4 16 7 5 13 -16
11 -20 11 -37 0z"/>
<path d="M1343 1363 c-10 -3 -10 -9 0 -24 16 -26 27 -24 27 6 0 25 -4 28 -27
18z"/>
<path d="M955 1290 c-3 -5 -17 -10 -31 -10 -34 0 -22 -17 16 -22 41 -6 58 6
37 26 -10 10 -18 12 -22 6z"/>
<path d="M69 1279 c-9 -5 -10 -9 -2 -9 6 0 13 -7 15 -15 2 -13 5 -12 15 4 10
15 9 20 -1 24 -7 3 -19 1 -27 -4z"/>
<path d="M1336 1275 c-17 -13 -18 -15 -3 -15 9 0 17 -7 17 -15 0 -8 5 -15 10
-15 6 0 10 14 10 30 0 33 -6 36 -34 15z"/>
<path d="M161 1212 c-1 -9 -13 -13 -38 -12 -67 3 -80 1 -63 -10 8 -5 30 -7 48
-4 18 4 38 2 45 -4 8 -7 18 -6 31 4 16 11 17 14 4 14 -9 0 -19 6 -21 13 -4 9
-6 9 -6 -1z"/>
<path d="M1347 1196 c-16 -13 -16 -14 -1 -20 20 -8 27 -3 22 18 -2 12 -6 13
-21 2z"/>
<path d="M1256 1191 c-3 -5 0 -11 8 -14 19 -8 57 3 50 14 -7 12 -51 12 -58 0z"/>
<path d="M1350 1045 c0 -8 5 -15 10 -15 6 0 10 7 10 15 0 8 -4 15 -10 15 -5 0
-10 -7 -10 -15z"/>
<path d="M280 950 c0 -5 5 -10 10 -10 6 0 10 5 10 10 0 6 -4 10 -10 10 -5 0
-10 -4 -10 -10z"/>
<path d="M312 949 c2 -6 7 -10 11 -10 4 1 19 1 35 2 24 0 25 1 7 9 -29 12 -57
12 -53 -1z"/>
<path d="M435 950 c-3 -5 1 -10 10 -10 9 0 13 5 10 10 -3 6 -8 10 -10 10 -2 0
-7 -4 -10 -10z"/>
<path d="M515 950 c-3 -5 1 -10 10 -10 9 0 13 5 10 10 -3 6 -8 10 -10 10 -2 0
-7 -4 -10 -10z"/>
<path d="M678 943 c7 -3 16 -2 19 1 4 3 -2 6 -13 5 -11 0 -14 -3 -6 -6z"/>
<path d="M710 941 c0 -6 5 -13 10 -16 6 -3 10 -1 10 6 0 8 13 10 40 6 22 -3
40 -1 40 4 0 5 -22 9 -50 9 -27 0 -50 -4 -50 -9z"/>
<path d="M1300 935 c0 -8 5 -15 10 -15 6 0 10 7 10 15 0 8 -4 15 -10 15 -5 0
-10 -7 -10 -15z"/>
<path d="M145 880 c-19 -7 -19 -7 4 -15 12 -4 27 -3 33 3 13 13 -11 21 -37 12z"/>
<path d="M316 883 c-11 -11 -6 -23 8 -23 8 0 17 4 20 9 7 10 -19 23 -28 14z"/>
<path d="M705 870 c3 -5 13 -10 21 -10 8 0 14 5 14 10 0 6 -9 10 -21 10 -11 0
-17 -4 -14 -10z"/>
<path d="M780 870 c0 -5 5 -10 10 -10 6 0 10 5 10 10 0 6 -4 10 -10 10 -5 0
-10 -4 -10 -10z"/>
<path d="M145 800 c-19 -7 -19 -7 2 -14 13 -4 30 -3 39 2 15 8 14 10 -3 14
-10 3 -27 2 -38 -2z"/>
<path d="M311 801 c-10 -7 -10 -10 -1 -16 6 -4 16 -3 22 3 13 13 -4 23 -21 13z"/>
<path d="M780 790 c0 -5 5 -10 10 -10 6 0 10 5 10 10 0 6 -4 10 -10 10 -5 0
-10 -4 -10 -10z"/>
<path d="M1347 794 c-9 -9 4 -35 14 -28 5 3 9 12 9 20 0 14 -12 19 -23 8z"/>
<path d="M315 560 c-3 -5 -1 -10 4 -10 6 0 11 5 11 10 0 6 -2 10 -4 10 -3 0
-8 -4 -11 -10z"/>
<path d="M457 558 c-20 -13 13 -28 36 -17 12 7 28 7 47 0 22 -7 32 -6 41 5 6
8 8 14 3 14 -81 5 -117 4 -127 -2z"/>
<path d="M345 550 c3 -5 10 -10 16 -10 5 0 9 5 9 10 0 6 -7 10 -16 10 -8 0
-12 -4 -9 -10z"/>
<path d="M227 524 c-8 -8 1 -24 14 -24 5 0 9 7 9 15 0 15 -12 20 -23 9z"/>
<path d="M375 518 c-16 -4 -36 -6 -43 -3 -8 3 -26 -4 -42 -15 -15 -11 -45 -21
-67 -21 -21 -1 -30 -3 -20 -6 21 -6 21 -12 0 -36 -12 -13 -18 -35 -18 -69 0
-44 -2 -48 -20 -44 -11 3 -32 6 -47 6 -23 0 -28 4 -28 24 0 21 5 25 38 28 33
3 37 6 39 33 3 28 2 29 -7 7 -8 -20 -17 -23 -47 -21 -55 3 -73 0 -73 -11 0 -5
9 -10 20 -10 15 0 20 -7 20 -24 0 -19 -6 -25 -27 -28 -36 -4 -41 -26 -6 -30
38 -4 41 -49 3 -59 -21 -6 -22 -7 -5 -8 12 -1 25 -5 30 -10 6 -6 17 -4 29 5
17 12 18 14 3 14 -12 0 -17 8 -17 30 0 27 3 30 31 30 24 0 32 -5 37 -22 l6
-23 6 24 c6 27 30 41 30 19 0 -8 11 -21 25 -28 33 -17 23 -25 -31 -25 -24 0
-44 -4 -44 -10 0 -5 17 -10 38 -10 l37 0 2 -74 3 -74 -38 5 c-20 3 -48 1 -62
-3 -14 -4 36 -7 110 -7 74 1 125 3 113 5 -13 2 -23 11 -23 19 0 8 -4 14 -10
14 -5 0 -10 -7 -10 -15 0 -10 -10 -15 -31 -15 -28 0 -30 2 -27 33 l3 32 55 -1
c81 -3 80 -3 80 -21 0 -14 4 -13 22 6 19 22 20 24 4 33 -13 7 -14 13 -6 23 6
7 7 15 3 18 -12 7 -63 -4 -63 -14 0 -5 6 -6 14 -3 14 5 33 -13 23 -22 -10 -10
-57 9 -57 22 0 8 -4 14 -10 14 -5 0 -10 -6 -10 -14 0 -12 -28 -25 -52 -26 -5
0 -8 18 -8 39 0 36 2 39 23 34 12 -3 28 -10 35 -16 9 -7 16 -7 24 1 7 7 30 12
51 12 30 0 38 3 33 15 -3 8 1 18 8 22 7 5 18 18 25 30 6 12 23 28 39 35 15 7
27 20 27 28 0 8 4 20 8 26 3 6 -4 31 -17 55 -20 39 -27 44 -54 42 -24 -2 -32
2 -39 20 -7 21 -12 23 -38 15z m25 -28 c0 -5 -4 -10 -10 -10 -5 0 -10 5 -10
10 0 6 5 10 10 10 6 0 10 -4 10 -10z m-10 -66 c0 -32 11 -36 36 -13 l22 20 15
-22 c17 -24 8 -55 -19 -66 -8 -3 -14 -10 -14 -17 0 -6 -10 -24 -23 -40 -30
-37 -58 -29 -86 25 -26 49 -26 59 -2 59 10 0 21 6 24 14 9 22 -3 26 -29 9 -30
-19 -41 -12 -18 11 22 22 9 34 -14 13 -10 -9 -23 -13 -30 -8 -19 12 18 41 62
48 34 5 52 -10 24 -20 -7 -2 -10 -8 -6 -12 13 -14 38 4 38 27 0 19 2 20 10 8
5 -8 10 -24 10 -36z m-146 -99 c-5 -12 -9 -13 -20 -4 -15 12 -18 37 -7 65 6
15 9 13 20 -13 7 -18 10 -39 7 -48z m46 -58 c11 -5 9 -6 -4 -4 -11 1 -21 9
-23 17 -3 10 -2 11 4 4 4 -6 15 -14 23 -17z m55 -17 c3 -5 -1 -10 -9 -10 -9 0
-16 5 -16 10 0 6 4 10 9 10 6 0 13 -4 16 -10z"/>
<path d="M545 480 c-3 -5 -12 -7 -20 -3 -8 3 -15 0 -15 -6 0 -6 6 -11 14 -11
8 0 20 -2 28 -5 7 -3 20 0 28 5 13 9 13 11 0 20 -19 12 -27 12 -35 0z"/>
<path d="M542 244 c-18 -20 -15 -24 18 -24 34 0 38 10 12 26 -13 9 -20 8 -30
-2z"/>
<path d="M706 244 c-8 -20 -3 -27 18 -22 12 2 13 6 2 21 -13 16 -14 16 -20 1z"/>
<path d="M1261 231 c-10 -6 -9 -10 3 -14 8 -3 18 -2 21 3 8 13 -9 20 -24 11z"/>
<path d="M1346 231 c-4 -7 -5 -15 -2 -18 9 -9 19 4 14 18 -4 11 -6 11 -12 0z"/>
<path d="M471 178 c0 -10 -6 -18 -12 -18 -5 0 -7 -4 -4 -10 3 -5 17 -10 31
-10 13 0 24 5 24 10 0 6 -6 10 -14 10 -8 0 -17 8 -19 18 -4 16 -5 16 -6 0z"/>
<path d="M784 166 c-9 -20 -9 -26 2 -30 10 -4 14 3 14 24 0 36 -2 37 -16 6z"/>
<path d="M72 161 c-10 -6 -10 -10 2 -20 10 -9 16 -9 21 -1 10 16 -7 31 -23 21z"/>
<path d="M541 161 c-9 -6 -9 -11 2 -20 11 -9 17 -8 26 3 9 10 8 15 -2 19 -8 3
-19 2 -26 -2z"/>
<path d="M143 149 c14 -8 22 -8 30 0 8 8 3 11 -18 11 -26 -1 -28 -2 -12 -11z"/>
<path d="M705 151 c-6 -11 9 -23 19 -14 9 9 7 23 -3 23 -6 0 -12 -4 -16 -9z"/>
<path d="M70 80 c0 -5 5 -10 10 -10 6 0 10 5 10 10 0 6 -4 10 -10 10 -5 0 -10
-4 -10 -10z"/>
</g>
</svg>
